<svg width="1192" height="34" viewBox="0 0 1192 34" fill="none" xmlns="http://www.w3.org/2000/svg">
<rect x="0.5" y="0.5" width="1191" height="33" rx="8.5" fill="#9CC7F2" stroke="#9CC7F2"/>
<path d="M539.87 21.614C539.942 21.77 539.978 21.926 539.978 22.082C539.978 22.358 539.864 22.592 539.636 22.784C539.42 22.976 539.168 23.072 538.88 23.072C538.688 23.072 538.508 23.024 538.34 22.928C538.172 22.82 538.04 22.658 537.944 22.442L536.864 20.03H530.528L529.448 22.442C529.352 22.658 529.22 22.82 529.052 22.928C528.884 23.024 528.698 23.072 528.494 23.072C528.218 23.072 527.966 22.976 527.738 22.784C527.51 22.592 527.396 22.358 527.396 22.082C527.396 21.926 527.432 21.77 527.504 21.614L532.472 10.94C532.58 10.7 532.742 10.52 532.958 10.4C533.186 10.268 533.426 10.202 533.678 10.202C533.93 10.202 534.164 10.268 534.38 10.4C534.608 10.52 534.776 10.7 534.884 10.94L539.87 21.614ZM531.32 18.23H536.072L533.696 12.884L531.32 18.23ZM548.873 10.22C549.209 10.22 549.485 10.316 549.701 10.508C549.917 10.7 550.025 10.952 550.025 11.264V22.028C550.025 22.352 549.923 22.61 549.719 22.802C549.515 22.994 549.245 23.09 548.909 23.09C548.573 23.09 548.303 22.994 548.099 22.802C547.895 22.61 547.793 22.352 547.793 22.028V21.578C547.529 22.07 547.145 22.454 546.641 22.73C546.149 23.006 545.585 23.144 544.949 23.144C544.193 23.144 543.515 22.952 542.915 22.568C542.327 22.184 541.865 21.644 541.529 20.948C541.205 20.24 541.043 19.43 541.043 18.518C541.043 17.606 541.205 16.808 541.529 16.124C541.865 15.44 542.327 14.912 542.915 14.54C543.503 14.168 544.181 13.982 544.949 13.982C545.585 13.982 546.149 14.114 546.641 14.378C547.133 14.642 547.511 15.014 547.775 15.494V11.228C547.775 10.928 547.871 10.688 548.063 10.508C548.267 10.316 548.537 10.22 548.873 10.22ZM545.543 21.398C546.263 21.398 546.815 21.152 547.199 20.66C547.595 20.168 547.793 19.466 547.793 18.554C547.793 17.642 547.595 16.946 547.199 16.466C546.815 15.974 546.269 15.728 545.561 15.728C544.841 15.728 544.283 15.968 543.887 16.448C543.491 16.928 543.293 17.618 543.293 18.518C543.293 19.43 543.491 20.138 543.887 20.642C544.283 21.146 544.835 21.398 545.543 21.398ZM553.456 23.108C553.132 23.108 552.862 23.018 552.646 22.838C552.442 22.646 552.34 22.376 552.34 22.028V15.08C552.34 14.732 552.442 14.468 552.646 14.288C552.862 14.108 553.132 14.018 553.456 14.018C553.78 14.018 554.05 14.108 554.266 14.288C554.482 14.468 554.59 14.732 554.59 15.08V22.028C554.59 22.376 554.482 22.646 554.266 22.838C554.05 23.018 553.78 23.108 553.456 23.108ZM553.456 12.416C553.048 12.416 552.724 12.308 552.484 12.092C552.244 11.864 552.124 11.57 552.124 11.21C552.124 10.85 552.244 10.562 552.484 10.346C552.724 10.13 553.048 10.022 553.456 10.022C553.852 10.022 554.17 10.13 554.41 10.346C554.662 10.562 554.788 10.85 554.788 11.21C554.788 11.57 554.668 11.864 554.428 12.092C554.188 12.308 553.864 12.416 553.456 12.416ZM560.816 23.144C559.94 23.144 559.166 22.958 558.494 22.586C557.834 22.214 557.324 21.686 556.964 21.002C556.604 20.318 556.424 19.52 556.424 18.608C556.424 17.696 556.61 16.892 556.982 16.196C557.366 15.488 557.9 14.942 558.584 14.558C559.268 14.174 560.054 13.982 560.942 13.982C561.41 13.982 561.878 14.048 562.346 14.18C562.826 14.312 563.246 14.492 563.606 14.72C563.99 14.972 564.182 15.29 564.182 15.674C564.182 15.938 564.116 16.154 563.984 16.322C563.864 16.478 563.702 16.556 563.498 16.556C563.366 16.556 563.228 16.526 563.084 16.466C562.94 16.406 562.796 16.334 562.652 16.25C562.388 16.094 562.136 15.974 561.896 15.89C561.656 15.794 561.38 15.746 561.068 15.746C560.324 15.746 559.748 15.992 559.34 16.484C558.944 16.964 558.746 17.66 558.746 18.572C558.746 19.472 558.944 20.168 559.34 20.66C559.748 21.14 560.324 21.38 561.068 21.38C561.368 21.38 561.632 21.338 561.86 21.254C562.1 21.158 562.364 21.032 562.652 20.876C562.832 20.768 562.988 20.69 563.12 20.642C563.252 20.582 563.384 20.552 563.516 20.552C563.708 20.552 563.87 20.636 564.002 20.804C564.134 20.972 564.2 21.182 564.2 21.434C564.2 21.638 564.152 21.818 564.056 21.974C563.972 22.118 563.828 22.25 563.624 22.37C563.252 22.61 562.82 22.802 562.328 22.946C561.836 23.078 561.332 23.144 560.816 23.144ZM566.815 23.108C566.491 23.108 566.221 23.018 566.005 22.838C565.801 22.646 565.699 22.376 565.699 22.028V15.08C565.699 14.732 565.801 14.468 566.005 14.288C566.221 14.108 566.491 14.018 566.815 14.018C567.139 14.018 567.409 14.108 567.625 14.288C567.841 14.468 567.949 14.732 567.949 15.08V22.028C567.949 22.376 567.841 22.646 567.625 22.838C567.409 23.018 567.139 23.108 566.815 23.108ZM566.815 12.416C566.407 12.416 566.083 12.308 565.843 12.092C565.603 11.864 565.483 11.57 565.483 11.21C565.483 10.85 565.603 10.562 565.843 10.346C566.083 10.13 566.407 10.022 566.815 10.022C567.211 10.022 567.529 10.13 567.769 10.346C568.021 10.562 568.147 10.85 568.147 11.21C568.147 11.57 568.027 11.864 567.787 12.092C567.547 12.308 567.223 12.416 566.815 12.416ZM574.284 23.144C573.384 23.144 572.592 22.958 571.908 22.586C571.236 22.214 570.714 21.68 570.342 20.984C569.97 20.288 569.784 19.478 569.784 18.554C569.784 17.63 569.97 16.826 570.342 16.142C570.714 15.446 571.236 14.912 571.908 14.54C572.592 14.168 573.384 13.982 574.284 13.982C575.184 13.982 575.97 14.168 576.642 14.54C577.326 14.912 577.848 15.446 578.208 16.142C578.58 16.826 578.766 17.63 578.766 18.554C578.766 19.478 578.58 20.288 578.208 20.984C577.848 21.68 577.326 22.214 576.642 22.586C575.97 22.958 575.184 23.144 574.284 23.144ZM574.266 21.398C574.998 21.398 575.556 21.158 575.94 20.678C576.324 20.198 576.516 19.49 576.516 18.554C576.516 17.63 576.324 16.928 575.94 16.448C575.556 15.956 575.004 15.71 574.284 15.71C573.564 15.71 573.006 15.956 572.61 16.448C572.226 16.928 572.034 17.63 572.034 18.554C572.034 19.49 572.226 20.198 572.61 20.678C572.994 21.158 573.546 21.398 574.266 21.398ZM585.735 13.982C586.791 13.982 587.577 14.282 588.093 14.882C588.609 15.482 588.867 16.388 588.867 17.6V22.028C588.867 22.364 588.765 22.628 588.561 22.82C588.369 23.012 588.099 23.108 587.751 23.108C587.403 23.108 587.127 23.012 586.923 22.82C586.719 22.628 586.617 22.364 586.617 22.028V17.726C586.617 17.042 586.485 16.544 586.221 16.232C585.969 15.92 585.567 15.764 585.015 15.764C584.367 15.764 583.845 15.968 583.449 16.376C583.065 16.784 582.873 17.33 582.873 18.014V22.028C582.873 22.364 582.771 22.628 582.567 22.82C582.363 23.012 582.087 23.108 581.739 23.108C581.391 23.108 581.115 23.012 580.911 22.82C580.719 22.628 580.623 22.364 580.623 22.028V15.062C580.623 14.75 580.725 14.498 580.929 14.306C581.133 14.114 581.409 14.018 581.757 14.018C582.069 14.018 582.321 14.114 582.513 14.306C582.717 14.486 582.819 14.726 582.819 15.026V15.512C583.119 15.02 583.521 14.642 584.025 14.378C584.529 14.114 585.099 13.982 585.735 13.982ZM594.968 13.982C596.192 13.982 597.098 14.288 597.686 14.9C598.286 15.5 598.586 16.418 598.586 17.654V22.046C598.586 22.37 598.49 22.628 598.298 22.82C598.106 23 597.842 23.09 597.506 23.09C597.194 23.09 596.936 22.994 596.732 22.802C596.54 22.61 596.444 22.358 596.444 22.046V21.65C596.24 22.118 595.916 22.484 595.472 22.748C595.04 23.012 594.536 23.144 593.96 23.144C593.372 23.144 592.838 23.024 592.358 22.784C591.878 22.544 591.5 22.214 591.224 21.794C590.948 21.374 590.81 20.906 590.81 20.39C590.81 19.742 590.972 19.232 591.296 18.86C591.632 18.488 592.172 18.218 592.916 18.05C593.66 17.882 594.686 17.798 595.994 17.798H596.444V17.384C596.444 16.796 596.318 16.37 596.066 16.106C595.814 15.83 595.406 15.692 594.842 15.692C594.494 15.692 594.14 15.746 593.78 15.854C593.42 15.95 592.994 16.094 592.502 16.286C592.19 16.442 591.962 16.52 591.818 16.52C591.602 16.52 591.422 16.442 591.278 16.286C591.146 16.13 591.08 15.926 591.08 15.674C591.08 15.47 591.128 15.296 591.224 15.152C591.332 14.996 591.506 14.852 591.746 14.72C592.166 14.492 592.664 14.312 593.24 14.18C593.828 14.048 594.404 13.982 594.968 13.982ZM594.41 21.524C595.01 21.524 595.496 21.326 595.868 20.93C596.252 20.522 596.444 20 596.444 19.364V18.986H596.12C595.316 18.986 594.692 19.022 594.248 19.094C593.804 19.166 593.486 19.292 593.294 19.472C593.102 19.652 593.006 19.898 593.006 20.21C593.006 20.594 593.138 20.912 593.402 21.164C593.678 21.404 594.014 21.524 594.41 21.524ZM605.787 14.018C606.099 13.994 606.345 14.06 606.525 14.216C606.705 14.372 606.795 14.606 606.795 14.918C606.795 15.242 606.717 15.482 606.561 15.638C606.405 15.794 606.123 15.896 605.715 15.944L605.175 15.998C604.467 16.07 603.945 16.31 603.609 16.718C603.285 17.126 603.123 17.636 603.123 18.248V22.028C603.123 22.376 603.015 22.646 602.799 22.838C602.583 23.018 602.313 23.108 601.989 23.108C601.665 23.108 601.395 23.018 601.179 22.838C600.975 22.646 600.873 22.376 600.873 22.028V15.062C600.873 14.726 600.975 14.468 601.179 14.288C601.395 14.108 601.659 14.018 601.971 14.018C602.283 14.018 602.535 14.108 602.727 14.288C602.919 14.456 603.015 14.702 603.015 15.026V15.746C603.243 15.218 603.579 14.81 604.023 14.522C604.479 14.234 604.983 14.072 605.535 14.036L605.787 14.018ZM613.766 23.108C613.442 23.108 613.172 23.018 612.956 22.838C612.752 22.646 612.65 22.376 612.65 22.028V15.08C612.65 14.732 612.752 14.468 612.956 14.288C613.172 14.108 613.442 14.018 613.766 14.018C614.09 14.018 614.36 14.108 614.576 14.288C614.792 14.468 614.9 14.732 614.9 15.08V22.028C614.9 22.376 614.792 22.646 614.576 22.838C614.36 23.018 614.09 23.108 613.766 23.108ZM613.766 12.416C613.358 12.416 613.034 12.308 612.794 12.092C612.554 11.864 612.434 11.57 612.434 11.21C612.434 10.85 612.554 10.562 612.794 10.346C613.034 10.13 613.358 10.022 613.766 10.022C614.162 10.022 614.48 10.13 614.72 10.346C614.972 10.562 615.098 10.85 615.098 11.21C615.098 11.57 614.978 11.864 614.738 12.092C614.498 12.308 614.174 12.416 613.766 12.416ZM622.18 21.434C622.78 21.47 623.08 21.74 623.08 22.244C623.08 22.532 622.96 22.754 622.72 22.91C622.492 23.054 622.162 23.114 621.729 23.09L621.244 23.054C619.228 22.91 618.22 21.83 618.22 19.814V15.89H617.32C616.996 15.89 616.744 15.818 616.564 15.674C616.395 15.53 616.311 15.32 616.311 15.044C616.311 14.768 616.395 14.558 616.564 14.414C616.744 14.27 616.996 14.198 617.32 14.198H618.22V12.542C618.22 12.218 618.322 11.96 618.526 11.768C618.73 11.576 619.006 11.48 619.354 11.48C619.69 11.48 619.96 11.576 620.164 11.768C620.368 11.96 620.47 12.218 620.47 12.542V14.198H622C622.324 14.198 622.57 14.27 622.738 14.414C622.918 14.558 623.008 14.768 623.008 15.044C623.008 15.32 622.918 15.53 622.738 15.674C622.57 15.818 622.324 15.89 622 15.89H620.47V19.976C620.47 20.864 620.878 21.338 621.694 21.398L622.18 21.434ZM631.218 20.588C631.422 20.588 631.584 20.666 631.704 20.822C631.836 20.978 631.902 21.188 631.902 21.452C631.902 21.824 631.68 22.136 631.236 22.388C630.828 22.616 630.366 22.802 629.85 22.946C629.334 23.078 628.842 23.144 628.374 23.144C626.958 23.144 625.836 22.736 625.008 21.92C624.18 21.104 623.766 19.988 623.766 18.572C623.766 17.672 623.946 16.874 624.306 16.178C624.666 15.482 625.17 14.942 625.818 14.558C626.478 14.174 627.222 13.982 628.05 13.982C628.842 13.982 629.532 14.156 630.12 14.504C630.708 14.852 631.164 15.344 631.488 15.98C631.812 16.616 631.974 17.366 631.974 18.23C631.974 18.746 631.746 19.004 631.29 19.004H625.98C626.052 19.832 626.286 20.444 626.682 20.84C627.078 21.224 627.654 21.416 628.41 21.416C628.794 21.416 629.13 21.368 629.418 21.272C629.718 21.176 630.054 21.044 630.426 20.876C630.786 20.684 631.05 20.588 631.218 20.588ZM628.104 15.566C627.492 15.566 627 15.758 626.628 16.142C626.268 16.526 626.052 17.078 625.98 17.798H630.048C630.024 17.066 629.844 16.514 629.508 16.142C629.172 15.758 628.704 15.566 628.104 15.566ZM644.273 13.982C645.233 13.982 645.965 14.27 646.469 14.846C646.985 15.41 647.243 16.328 647.243 17.6V22.028C647.243 22.376 647.135 22.646 646.919 22.838C646.715 23.018 646.445 23.108 646.109 23.108C645.785 23.108 645.515 23.018 645.299 22.838C645.095 22.646 644.993 22.376 644.993 22.028V17.6C644.993 16.94 644.873 16.472 644.633 16.196C644.405 15.908 644.051 15.764 643.571 15.764C642.983 15.764 642.515 15.968 642.167 16.376C641.819 16.772 641.645 17.318 641.645 18.014V22.028C641.645 22.376 641.537 22.646 641.321 22.838C641.117 23.018 640.853 23.108 640.529 23.108C640.205 23.108 639.935 23.018 639.719 22.838C639.503 22.646 639.395 22.376 639.395 22.028V17.6C639.395 16.94 639.275 16.472 639.035 16.196C638.807 15.908 638.453 15.764 637.973 15.764C637.385 15.764 636.917 15.968 636.569 16.376C636.233 16.772 636.065 17.318 636.065 18.014V22.028C636.065 22.376 635.957 22.646 635.741 22.838C635.525 23.018 635.255 23.108 634.931 23.108C634.607 23.108 634.337 23.018 634.121 22.838C633.917 22.646 633.815 22.376 633.815 22.028V15.062C633.815 14.726 633.923 14.468 634.139 14.288C634.355 14.108 634.625 14.018 634.949 14.018C635.261 14.018 635.513 14.108 635.705 14.288C635.909 14.456 636.011 14.702 636.011 15.026V15.458C636.287 14.978 636.653 14.612 637.109 14.36C637.577 14.108 638.111 13.982 638.711 13.982C640.031 13.982 640.913 14.534 641.357 15.638C641.621 15.134 642.011 14.732 642.527 14.432C643.043 14.132 643.625 13.982 644.273 13.982Z" fill="white"/>
</svg>

