<svg width="172" height="34" viewBox="0 0 172 34" fill="none" xmlns="http://www.w3.org/2000/svg">
<rect width="171.113" height="34" rx="9" fill="#FF1212" fill-opacity="0.53"/>
<rect x="0.5" y="0.5" width="170.113" height="33" rx="8.5" stroke="#FF1212" stroke-opacity="0.53"/>
<path d="M32.484 23C32.136 23 31.86 22.904 31.656 22.712C31.464 22.52 31.368 22.25 31.368 21.902V11.408C31.368 11.06 31.464 10.79 31.656 10.598C31.86 10.406 32.136 10.31 32.484 10.31H38.982C39.33 10.31 39.6 10.388 39.792 10.544C39.984 10.7 40.08 10.922 40.08 11.21C40.08 11.51 39.984 11.744 39.792 11.912C39.6 12.068 39.33 12.146 38.982 12.146H33.636V15.638H38.622C38.97 15.638 39.24 15.716 39.432 15.872C39.624 16.028 39.72 16.256 39.72 16.556C39.72 16.844 39.624 17.066 39.432 17.222C39.24 17.378 38.97 17.456 38.622 17.456H33.636V21.164H38.982C39.33 21.164 39.6 21.248 39.792 21.416C39.984 21.572 40.08 21.8 40.08 22.1C40.08 22.388 39.984 22.61 39.792 22.766C39.6 22.922 39.33 23 38.982 23H32.484ZM49.4016 21.344C49.6176 21.56 49.7256 21.806 49.7256 22.082C49.7256 22.346 49.6236 22.586 49.4196 22.802C49.2156 23.006 48.9756 23.108 48.6996 23.108C48.3996 23.108 48.1416 22.982 47.9256 22.73L45.3876 19.922L42.8496 22.73C42.6216 22.97 42.3636 23.09 42.0756 23.09C41.8116 23.09 41.5776 22.988 41.3736 22.784C41.1696 22.58 41.0676 22.346 41.0676 22.082C41.0676 21.806 41.1756 21.56 41.3916 21.344L44.0196 18.482L41.5356 15.782C41.3196 15.566 41.2116 15.32 41.2116 15.044C41.2116 14.768 41.3136 14.534 41.5176 14.342C41.7216 14.138 41.9556 14.036 42.2196 14.036C42.5076 14.036 42.7656 14.156 42.9936 14.396L45.3876 17.024L47.7816 14.396C48.0096 14.156 48.2676 14.036 48.5556 14.036C48.8316 14.036 49.0656 14.138 49.2576 14.342C49.4616 14.534 49.5636 14.768 49.5636 15.044C49.5636 15.32 49.4556 15.566 49.2396 15.782L46.7556 18.482L49.4016 21.344ZM55.0799 23.144C54.2039 23.144 53.4299 22.958 52.7579 22.586C52.0979 22.214 51.5879 21.686 51.2279 21.002C50.8679 20.318 50.6879 19.52 50.6879 18.608C50.6879 17.696 50.8739 16.892 51.2459 16.196C51.6299 15.488 52.1639 14.942 52.8479 14.558C53.5319 14.174 54.3179 13.982 55.2059 13.982C55.6739 13.982 56.1419 14.048 56.6099 14.18C57.0899 14.312 57.5099 14.492 57.8699 14.72C58.2539 14.972 58.4459 15.29 58.4459 15.674C58.4459 15.938 58.3799 16.154 58.2479 16.322C58.1279 16.478 57.9659 16.556 57.7619 16.556C57.6299 16.556 57.4919 16.526 57.3479 16.466C57.2039 16.406 57.0599 16.334 56.9159 16.25C56.6519 16.094 56.3999 15.974 56.1599 15.89C55.9199 15.794 55.6439 15.746 55.3319 15.746C54.5879 15.746 54.0119 15.992 53.6039 16.484C53.2079 16.964 53.0099 17.66 53.0099 18.572C53.0099 19.472 53.2079 20.168 53.6039 20.66C54.0119 21.14 54.5879 21.38 55.3319 21.38C55.6319 21.38 55.8959 21.338 56.1239 21.254C56.3639 21.158 56.6279 21.032 56.9159 20.876C57.0959 20.768 57.2519 20.69 57.3839 20.642C57.5159 20.582 57.6479 20.552 57.7799 20.552C57.9719 20.552 58.1339 20.636 58.2659 20.804C58.3979 20.972 58.4639 21.182 58.4639 21.434C58.4639 21.638 58.4159 21.818 58.3199 21.974C58.2359 22.118 58.0919 22.25 57.8879 22.37C57.5159 22.61 57.0839 22.802 56.5919 22.946C56.0999 23.078 55.5959 23.144 55.0799 23.144ZM61.079 23.108C60.755 23.108 60.485 23.018 60.269 22.838C60.065 22.646 59.963 22.376 59.963 22.028V11.282C59.963 10.934 60.065 10.67 60.269 10.49C60.485 10.31 60.755 10.22 61.079 10.22C61.403 10.22 61.673 10.31 61.889 10.49C62.105 10.67 62.213 10.934 62.213 11.282V22.028C62.213 22.376 62.105 22.646 61.889 22.838C61.673 23.018 61.403 23.108 61.079 23.108ZM71.4813 14.018C71.8293 14.018 72.1053 14.114 72.3093 14.306C72.5133 14.498 72.6153 14.756 72.6153 15.08V22.064C72.6153 22.376 72.5073 22.628 72.2913 22.82C72.0873 23.012 71.8173 23.108 71.4813 23.108C71.1573 23.108 70.8993 23.018 70.7073 22.838C70.5153 22.658 70.4193 22.412 70.4193 22.1V21.65C70.1433 22.13 69.7713 22.502 69.3033 22.766C68.8353 23.018 68.3073 23.144 67.7193 23.144C65.5593 23.144 64.4793 21.932 64.4793 19.508V15.08C64.4793 14.756 64.5813 14.498 64.7853 14.306C64.9893 14.114 65.2593 14.018 65.5953 14.018C65.9433 14.018 66.2193 14.114 66.4233 14.306C66.6273 14.498 66.7293 14.756 66.7293 15.08V19.526C66.7293 20.15 66.8553 20.612 67.1073 20.912C67.3593 21.212 67.7553 21.362 68.2953 21.362C68.9193 21.362 69.4173 21.158 69.7893 20.75C70.1733 20.33 70.3653 19.778 70.3653 19.094V15.08C70.3653 14.756 70.4673 14.498 70.6713 14.306C70.8753 14.114 71.1453 14.018 71.4813 14.018ZM76.0731 23.108C75.7491 23.108 75.4791 23.018 75.2631 22.838C75.0591 22.646 74.9571 22.376 74.9571 22.028V15.08C74.9571 14.732 75.0591 14.468 75.2631 14.288C75.4791 14.108 75.7491 14.018 76.0731 14.018C76.3971 14.018 76.6671 14.108 76.8831 14.288C77.0991 14.468 77.2071 14.732 77.2071 15.08V22.028C77.2071 22.376 77.0991 22.646 76.8831 22.838C76.6671 23.018 76.3971 23.108 76.0731 23.108ZM76.0731 12.416C75.6651 12.416 75.3411 12.308 75.1011 12.092C74.8611 11.864 74.7411 11.57 74.7411 11.21C74.7411 10.85 74.8611 10.562 75.1011 10.346C75.3411 10.13 75.6651 10.022 76.0731 10.022C76.4691 10.022 76.7871 10.13 77.0271 10.346C77.2791 10.562 77.4051 10.85 77.4051 11.21C77.4051 11.57 77.2851 11.864 77.0451 12.092C76.8051 12.308 76.4811 12.416 76.0731 12.416ZM84.4414 14.018C84.7534 13.994 84.9994 14.06 85.1794 14.216C85.3594 14.372 85.4494 14.606 85.4494 14.918C85.4494 15.242 85.3714 15.482 85.2154 15.638C85.0594 15.794 84.7774 15.896 84.3694 15.944L83.8294 15.998C83.1214 16.07 82.5994 16.31 82.2634 16.718C81.9394 17.126 81.7774 17.636 81.7774 18.248V22.028C81.7774 22.376 81.6694 22.646 81.4534 22.838C81.2374 23.018 80.9674 23.108 80.6434 23.108C80.3194 23.108 80.0494 23.018 79.8334 22.838C79.6294 22.646 79.5274 22.376 79.5274 22.028V15.062C79.5274 14.726 79.6294 14.468 79.8334 14.288C80.0494 14.108 80.3134 14.018 80.6254 14.018C80.9374 14.018 81.1894 14.108 81.3814 14.288C81.5734 14.456 81.6694 14.702 81.6694 15.026V15.746C81.8974 15.218 82.2334 14.81 82.6774 14.522C83.1334 14.234 83.6374 14.072 84.1894 14.036L84.4414 14.018ZM97.4428 14.666C97.5388 14.45 97.6648 14.288 97.8208 14.18C97.9888 14.072 98.1688 14.018 98.3608 14.018C98.6368 14.018 98.8828 14.114 99.0988 14.306C99.3268 14.486 99.4408 14.714 99.4408 14.99C99.4408 15.134 99.4048 15.278 99.3328 15.422L96.0028 22.388C95.8948 22.616 95.7388 22.79 95.5348 22.91C95.3428 23.03 95.1268 23.09 94.8868 23.09C94.6588 23.09 94.4368 23.03 94.2208 22.91C94.0168 22.79 93.8608 22.616 93.7528 22.388L90.4048 15.422C90.3448 15.302 90.3148 15.164 90.3148 15.008C90.3148 14.732 90.4288 14.498 90.6568 14.306C90.8968 14.114 91.1668 14.018 91.4668 14.018C91.8988 14.018 92.2168 14.228 92.4208 14.648L94.9408 20.21L97.4428 14.666ZM107.605 20.588C107.809 20.588 107.971 20.666 108.091 20.822C108.223 20.978 108.289 21.188 108.289 21.452C108.289 21.824 108.067 22.136 107.623 22.388C107.215 22.616 106.753 22.802 106.237 22.946C105.721 23.078 105.229 23.144 104.761 23.144C103.345 23.144 102.223 22.736 101.395 21.92C100.567 21.104 100.153 19.988 100.153 18.572C100.153 17.672 100.333 16.874 100.693 16.178C101.053 15.482 101.557 14.942 102.205 14.558C102.865 14.174 103.609 13.982 104.437 13.982C105.229 13.982 105.919 14.156 106.507 14.504C107.095 14.852 107.551 15.344 107.875 15.98C108.199 16.616 108.361 17.366 108.361 18.23C108.361 18.746 108.133 19.004 107.677 19.004H102.367C102.439 19.832 102.673 20.444 103.069 20.84C103.465 21.224 104.041 21.416 104.797 21.416C105.181 21.416 105.517 21.368 105.805 21.272C106.105 21.176 106.441 21.044 106.813 20.876C107.173 20.684 107.437 20.588 107.605 20.588ZM104.491 15.566C103.879 15.566 103.387 15.758 103.015 16.142C102.655 16.526 102.439 17.078 102.367 17.798H106.435C106.411 17.066 106.231 16.514 105.895 16.142C105.559 15.758 105.091 15.566 104.491 15.566ZM115.313 13.982C116.369 13.982 117.155 14.282 117.671 14.882C118.187 15.482 118.445 16.388 118.445 17.6V22.028C118.445 22.364 118.343 22.628 118.139 22.82C117.947 23.012 117.677 23.108 117.329 23.108C116.981 23.108 116.705 23.012 116.501 22.82C116.297 22.628 116.195 22.364 116.195 22.028V17.726C116.195 17.042 116.063 16.544 115.799 16.232C115.547 15.92 115.145 15.764 114.593 15.764C113.945 15.764 113.423 15.968 113.027 16.376C112.643 16.784 112.451 17.33 112.451 18.014V22.028C112.451 22.364 112.349 22.628 112.145 22.82C111.941 23.012 111.665 23.108 111.317 23.108C110.969 23.108 110.693 23.012 110.489 22.82C110.297 22.628 110.201 22.364 110.201 22.028V15.062C110.201 14.75 110.303 14.498 110.507 14.306C110.711 14.114 110.987 14.018 111.335 14.018C111.647 14.018 111.899 14.114 112.091 14.306C112.295 14.486 112.397 14.726 112.397 15.026V15.512C112.697 15.02 113.099 14.642 113.603 14.378C114.107 14.114 114.677 13.982 115.313 13.982ZM128.075 10.22C128.411 10.22 128.687 10.316 128.903 10.508C129.119 10.7 129.227 10.952 129.227 11.264V22.028C129.227 22.352 129.125 22.61 128.921 22.802C128.717 22.994 128.447 23.09 128.111 23.09C127.775 23.09 127.505 22.994 127.301 22.802C127.097 22.61 126.995 22.352 126.995 22.028V21.578C126.731 22.07 126.347 22.454 125.843 22.73C125.351 23.006 124.787 23.144 124.151 23.144C123.395 23.144 122.717 22.952 122.117 22.568C121.529 22.184 121.067 21.644 120.731 20.948C120.407 20.24 120.245 19.43 120.245 18.518C120.245 17.606 120.407 16.808 120.731 16.124C121.067 15.44 121.529 14.912 122.117 14.54C122.705 14.168 123.383 13.982 124.151 13.982C124.787 13.982 125.351 14.114 125.843 14.378C126.335 14.642 126.713 15.014 126.977 15.494V11.228C126.977 10.928 127.073 10.688 127.265 10.508C127.469 10.316 127.739 10.22 128.075 10.22ZM124.745 21.398C125.465 21.398 126.017 21.152 126.401 20.66C126.797 20.168 126.995 19.466 126.995 18.554C126.995 17.642 126.797 16.946 126.401 16.466C126.017 15.974 125.471 15.728 124.763 15.728C124.043 15.728 123.485 15.968 123.089 16.448C122.693 16.928 122.495 17.618 122.495 18.518C122.495 19.43 122.693 20.138 123.089 20.642C123.485 21.146 124.037 21.398 124.745 21.398ZM135.357 13.982C136.581 13.982 137.487 14.288 138.075 14.9C138.675 15.5 138.975 16.418 138.975 17.654V22.046C138.975 22.37 138.879 22.628 138.687 22.82C138.495 23 138.231 23.09 137.895 23.09C137.583 23.09 137.325 22.994 137.121 22.802C136.929 22.61 136.833 22.358 136.833 22.046V21.65C136.629 22.118 136.305 22.484 135.861 22.748C135.429 23.012 134.925 23.144 134.349 23.144C133.761 23.144 133.227 23.024 132.747 22.784C132.267 22.544 131.889 22.214 131.613 21.794C131.337 21.374 131.199 20.906 131.199 20.39C131.199 19.742 131.361 19.232 131.685 18.86C132.021 18.488 132.561 18.218 133.305 18.05C134.049 17.882 135.075 17.798 136.383 17.798H136.833V17.384C136.833 16.796 136.707 16.37 136.455 16.106C136.203 15.83 135.795 15.692 135.231 15.692C134.883 15.692 134.529 15.746 134.169 15.854C133.809 15.95 133.383 16.094 132.891 16.286C132.579 16.442 132.351 16.52 132.207 16.52C131.991 16.52 131.811 16.442 131.667 16.286C131.535 16.13 131.469 15.926 131.469 15.674C131.469 15.47 131.517 15.296 131.613 15.152C131.721 14.996 131.895 14.852 132.135 14.72C132.555 14.492 133.053 14.312 133.629 14.18C134.217 14.048 134.793 13.982 135.357 13.982ZM134.799 21.524C135.399 21.524 135.885 21.326 136.257 20.93C136.641 20.522 136.833 20 136.833 19.364V18.986H136.509C135.705 18.986 135.081 19.022 134.637 19.094C134.193 19.166 133.875 19.292 133.683 19.472C133.491 19.652 133.395 19.898 133.395 20.21C133.395 20.594 133.527 20.912 133.791 21.164C134.067 21.404 134.403 21.524 134.799 21.524Z" fill="white"/>
</svg>
