<svg width="300" height="300" viewBox="0 0 300 300" fill="none" xmlns="http://www.w3.org/2000/svg">
<rect width="300" height="300" rx="8" fill="url(#paint0_linear)"/>
<path d="M44.1833 126C42.6899 126 41.5379 125.595 40.7273 124.784C39.9166 123.973 39.5113 122.821 39.5113 121.328V85.488C39.5113 83.9947 39.9593 82.8 40.8553 81.904C41.7513 81.008 42.9673 80.56 44.5033 80.56C46.0393 80.56 47.2553 81.008 48.1513 81.904C49.0473 82.8 49.4953 83.9947 49.4953 85.488V117.872H65.8793C68.9939 117.872 70.5513 119.237 70.5513 121.968C70.5513 124.656 68.9939 126 65.8793 126H44.1833ZM79.6698 126.384C78.2618 126.384 77.0884 126 76.1498 125.232C75.2538 124.464 74.8058 123.333 74.8058 121.84V98.48C74.8058 96.9867 75.2751 95.856 76.2138 95.088C77.1524 94.32 78.3044 93.936 79.6698 93.936C81.0351 93.936 82.1658 94.32 83.0618 95.088C84.0004 95.856 84.4698 96.9867 84.4698 98.48V121.84C84.4698 123.333 84.0004 124.464 83.0618 125.232C82.1658 126 81.0351 126.384 79.6698 126.384ZM79.6698 88.816C77.9631 88.816 76.6191 88.3893 75.6378 87.536C74.6564 86.64 74.1658 85.4453 74.1658 83.952C74.1658 82.4587 74.6564 81.2853 75.6378 80.432C76.6191 79.5787 77.9631 79.152 79.6698 79.152C81.3338 79.152 82.6564 79.6 83.6378 80.496C84.6618 81.3493 85.1738 82.5013 85.1738 83.952C85.1738 85.4453 84.6831 86.64 83.7018 87.536C82.7204 88.3893 81.3764 88.816 79.6698 88.816ZM103.772 126.512C101.17 126.512 98.9083 126.299 96.9883 125.872C95.0683 125.445 93.3829 124.763 91.9323 123.824C91.2923 123.44 90.8016 122.928 90.4603 122.288C90.1189 121.648 89.9483 120.923 89.9483 120.112C89.9483 119.131 90.2256 118.32 90.7803 117.68C91.3349 116.997 92.0176 116.656 92.8283 116.656C93.3829 116.656 93.9376 116.763 94.4923 116.976C95.0469 117.147 95.6229 117.36 96.2203 117.616C97.4149 118.171 98.5883 118.619 99.7403 118.96C100.892 119.259 102.322 119.408 104.028 119.408C105.522 119.408 106.674 119.173 107.484 118.704C108.338 118.235 108.764 117.595 108.764 116.784C108.764 116.187 108.572 115.717 108.188 115.376C107.847 114.992 107.186 114.651 106.204 114.352C105.223 114.053 103.666 113.691 101.532 113.264C97.7349 112.539 95.0043 111.451 93.3403 110C91.6763 108.549 90.8443 106.523 90.8443 103.92C90.8443 102 91.4203 100.272 92.5723 98.736C93.7669 97.2 95.3883 96.0053 97.4363 95.152C99.4843 94.256 101.788 93.808 104.348 93.808C106.183 93.808 107.975 94.0427 109.724 94.512C111.474 94.9813 113.031 95.6427 114.396 96.496C115.719 97.3067 116.38 98.5013 116.38 100.08C116.38 101.104 116.103 101.957 115.548 102.64C114.994 103.323 114.311 103.664 113.5 103.664C112.519 103.664 111.346 103.28 109.98 102.512C108.914 101.957 107.932 101.552 107.036 101.296C106.183 100.997 105.159 100.848 103.964 100.848C102.642 100.848 101.596 101.104 100.828 101.616C100.06 102.085 99.6763 102.747 99.6763 103.6C99.6763 104.496 100.124 105.179 101.02 105.648C101.916 106.117 103.644 106.587 106.204 107.056C109.063 107.611 111.303 108.293 112.924 109.104C114.546 109.872 115.719 110.853 116.444 112.048C117.17 113.243 117.532 114.757 117.532 116.592C117.532 119.621 116.274 122.032 113.756 123.824C111.282 125.616 107.954 126.512 103.772 126.512ZM140.215 119.344C141.495 119.429 142.434 119.749 143.031 120.304C143.629 120.859 143.927 121.669 143.927 122.736C143.927 123.973 143.437 124.912 142.455 125.552C141.474 126.192 140.066 126.448 138.231 126.32L136.439 126.192C128.973 125.595 125.239 121.691 125.239 114.48V101.808H122.679C121.271 101.808 120.205 101.509 119.479 100.912C118.754 100.272 118.391 99.376 118.391 98.224C118.391 97.0293 118.754 96.1333 119.479 95.536C120.205 94.896 121.271 94.576 122.679 94.576H125.239V89.584C125.239 88.176 125.666 87.0667 126.519 86.256C127.415 85.4453 128.61 85.04 130.103 85.04C131.597 85.04 132.77 85.4453 133.623 86.256C134.477 87.0667 134.903 88.176 134.903 89.584V94.576H139.383C142.285 94.576 143.735 95.792 143.735 98.224C143.735 99.376 143.373 100.272 142.647 100.912C141.922 101.509 140.834 101.808 139.383 101.808H134.903V115.184C134.903 116.464 135.202 117.445 135.799 118.128C136.397 118.768 137.271 119.131 138.423 119.216L140.215 119.344ZM161.637 93.808C166.245 93.808 169.659 94.9387 171.877 97.2C174.096 99.4187 175.205 102.832 175.205 107.44V121.904C175.205 123.312 174.8 124.421 173.989 125.232C173.179 126 172.048 126.384 170.597 126.384C169.232 126.384 168.123 125.979 167.269 125.168C166.459 124.315 166.053 123.227 166.053 121.904V121.456C165.413 123.035 164.347 124.272 162.853 125.168C161.36 126.064 159.611 126.512 157.605 126.512C155.472 126.512 153.531 126.085 151.781 125.232C150.075 124.379 148.709 123.184 147.685 121.648C146.704 120.112 146.213 118.405 146.213 116.528C146.213 114.224 146.789 112.411 147.941 111.088C149.136 109.765 151.035 108.805 153.637 108.208C156.24 107.611 159.803 107.312 164.325 107.312H165.989V106.16C165.989 104.368 165.584 103.067 164.773 102.256C164.005 101.445 162.704 101.04 160.869 101.04C159.035 101.04 156.389 101.68 152.933 102.96C151.952 103.429 151.12 103.664 150.437 103.664C149.499 103.664 148.752 103.344 148.197 102.704C147.643 102.021 147.365 101.147 147.365 100.08C147.365 99.2267 147.557 98.5227 147.941 97.968C148.325 97.4133 148.944 96.9013 149.797 96.432C151.291 95.6213 153.104 94.9813 155.237 94.512C157.413 94.0427 159.547 93.808 161.637 93.808ZM159.717 119.856C161.595 119.856 163.109 119.237 164.261 118C165.413 116.72 165.989 115.077 165.989 113.072V111.984H164.901C161.445 111.984 159.013 112.261 157.605 112.816C156.24 113.371 155.557 114.373 155.557 115.824C155.557 117.019 155.941 118 156.709 118.768C157.52 119.493 158.523 119.856 159.717 119.856ZM227.122 80.56C228.615 80.56 229.81 80.9653 230.706 81.776C231.644 82.5867 232.114 83.6533 232.114 84.976V121.84C232.114 123.205 231.666 124.315 230.77 125.168C229.916 125.979 228.764 126.384 227.314 126.384C225.863 126.384 224.69 125.979 223.794 125.168C222.94 124.315 222.514 123.205 222.514 121.84V121.328C221.575 122.949 220.231 124.229 218.482 125.168C216.775 126.064 214.834 126.512 212.658 126.512C209.97 126.512 207.559 125.829 205.426 124.464C203.335 123.056 201.692 121.115 200.498 118.64C199.346 116.123 198.77 113.243 198.77 110C198.77 106.757 199.346 103.92 200.498 101.488C201.692 99.0133 203.335 97.1147 205.426 95.792C207.516 94.4693 209.927 93.808 212.658 93.808C214.791 93.808 216.711 94.256 218.418 95.152C220.167 96.048 221.511 97.3067 222.45 98.928V84.784C222.45 83.504 222.876 82.48 223.73 81.712C224.583 80.944 225.714 80.56 227.122 80.56ZM215.474 119.152C217.735 119.152 219.463 118.384 220.658 116.848C221.895 115.269 222.514 113.029 222.514 110.128C222.514 107.227 221.895 105.008 220.658 103.472C219.463 101.936 217.735 101.168 215.474 101.168C213.212 101.168 211.463 101.936 210.226 103.472C208.988 104.965 208.37 107.141 208.37 110C208.37 112.901 208.988 115.163 210.226 116.784C211.463 118.363 213.212 119.152 215.474 119.152ZM264.772 116.656C265.625 116.656 266.308 116.997 266.82 117.68C267.374 118.363 267.652 119.237 267.652 120.304C267.652 121.029 267.438 121.712 267.012 122.352C266.585 122.949 265.988 123.461 265.22 123.888C263.769 124.656 262.084 125.296 260.164 125.808C258.244 126.277 256.473 126.512 254.852 126.512C251.438 126.512 248.452 125.851 245.892 124.528C243.374 123.205 241.433 121.328 240.068 118.896C238.702 116.421 238.02 113.52 238.02 110.192C238.02 106.992 238.681 104.155 240.004 101.68C241.326 99.2053 243.161 97.2853 245.508 95.92C247.854 94.512 250.521 93.808 253.508 93.808C256.366 93.808 258.862 94.448 260.996 95.728C263.172 96.9653 264.857 98.7573 266.052 101.104C267.246 103.408 267.844 106.117 267.844 109.232C267.844 110.171 267.609 110.896 267.14 111.408C266.713 111.877 266.094 112.112 265.284 112.112H247.364C247.662 114.629 248.43 116.464 249.668 117.616C250.905 118.725 252.676 119.28 254.98 119.28C256.217 119.28 257.326 119.131 258.308 118.832C259.289 118.533 260.377 118.128 261.572 117.616C262.169 117.36 262.745 117.147 263.3 116.976C263.854 116.763 264.345 116.656 264.772 116.656ZM253.764 100.464C251.929 100.464 250.457 101.061 249.348 102.256C248.238 103.408 247.577 105.093 247.364 107.312H259.716C259.588 105.051 259.012 103.344 257.988 102.192C257.006 101.04 255.598 100.464 253.764 100.464ZM62.2093 203.656C63.0626 203.656 63.7453 203.997 64.2573 204.68C64.8119 205.363 65.0893 206.237 65.0893 207.304C65.0893 208.029 64.8759 208.712 64.4493 209.352C64.0226 209.949 63.4253 210.461 62.6573 210.888C61.2066 211.656 59.5213 212.296 57.6013 212.808C55.6813 213.277 53.9106 213.512 52.2893 213.512C48.8759 213.512 45.8893 212.851 43.3293 211.528C40.8119 210.205 38.8706 208.328 37.5052 205.896C36.1399 203.421 35.4573 200.52 35.4573 197.192C35.4573 193.992 36.1186 191.155 37.4413 188.68C38.7639 186.205 40.5986 184.285 42.9453 182.92C45.2919 181.512 47.9586 180.808 50.9453 180.808C53.8039 180.808 56.2999 181.448 58.4333 182.728C60.6093 183.965 62.2946 185.757 63.4893 188.104C64.6839 190.408 65.2812 193.117 65.2812 196.232C65.2812 197.171 65.0466 197.896 64.5773 198.408C64.1506 198.877 63.5319 199.112 62.7213 199.112H44.8013C45.0999 201.629 45.8679 203.464 47.1053 204.616C48.3426 205.725 50.1133 206.28 52.4173 206.28C53.6546 206.28 54.7639 206.131 55.7453 205.832C56.7266 205.533 57.8146 205.128 59.0093 204.616C59.6066 204.36 60.1826 204.147 60.7373 203.976C61.2919 203.763 61.7826 203.656 62.2093 203.656ZM51.2013 187.464C49.3666 187.464 47.8946 188.061 46.7853 189.256C45.6759 190.408 45.0146 192.093 44.8013 194.312H57.1533C57.0253 192.051 56.4493 190.344 55.4253 189.192C54.4439 188.04 53.0359 187.464 51.2013 187.464ZM83.0223 213.512C80.4196 213.512 78.1583 213.299 76.2383 212.872C74.3183 212.445 72.6329 211.763 71.1823 210.824C70.5423 210.44 70.0516 209.928 69.7103 209.288C69.3689 208.648 69.1983 207.923 69.1983 207.112C69.1983 206.131 69.4756 205.32 70.0303 204.68C70.5849 203.997 71.2676 203.656 72.0783 203.656C72.6329 203.656 73.1876 203.763 73.7423 203.976C74.2969 204.147 74.8729 204.36 75.4703 204.616C76.6649 205.171 77.8383 205.619 78.9903 205.96C80.1423 206.259 81.5716 206.408 83.2783 206.408C84.7716 206.408 85.9236 206.173 86.7343 205.704C87.5876 205.235 88.0143 204.595 88.0143 203.784C88.0143 203.187 87.8223 202.717 87.4383 202.376C87.0969 201.992 86.4356 201.651 85.4543 201.352C84.4729 201.053 82.9156 200.691 80.7823 200.264C76.9849 199.539 74.2543 198.451 72.5903 197C70.9263 195.549 70.0943 193.523 70.0943 190.92C70.0943 189 70.6703 187.272 71.8223 185.736C73.0169 184.2 74.6383 183.005 76.6863 182.152C78.7343 181.256 81.0383 180.808 83.5983 180.808C85.4329 180.808 87.2249 181.043 88.9743 181.512C90.7236 181.981 92.2809 182.643 93.6463 183.496C94.9689 184.307 95.6303 185.501 95.6303 187.08C95.6303 188.104 95.3529 188.957 94.7983 189.64C94.2436 190.323 93.5609 190.664 92.7503 190.664C91.7689 190.664 90.5956 190.28 89.2303 189.512C88.1636 188.957 87.1823 188.552 86.2863 188.296C85.4329 187.997 84.4089 187.848 83.2143 187.848C81.8916 187.848 80.8463 188.104 80.0783 188.616C79.3103 189.085 78.9263 189.747 78.9263 190.6C78.9263 191.496 79.3743 192.179 80.2703 192.648C81.1663 193.117 82.8943 193.587 85.4543 194.056C88.3129 194.611 90.5529 195.293 92.1743 196.104C93.7956 196.872 94.9689 197.853 95.6943 199.048C96.4196 200.243 96.7823 201.757 96.7823 203.592C96.7823 206.621 95.5236 209.032 93.0063 210.824C90.5316 212.616 87.2036 213.512 83.0223 213.512ZM119.465 206.344C120.745 206.429 121.684 206.749 122.281 207.304C122.879 207.859 123.177 208.669 123.177 209.736C123.177 210.973 122.687 211.912 121.705 212.552C120.724 213.192 119.316 213.448 117.481 213.32L115.689 213.192C108.223 212.595 104.489 208.691 104.489 201.48V188.808H101.929C100.521 188.808 99.4546 188.509 98.7293 187.912C98.0039 187.272 97.6412 186.376 97.6412 185.224C97.6412 184.029 98.0039 183.133 98.7293 182.536C99.4546 181.896 100.521 181.576 101.929 181.576H104.489V176.584C104.489 175.176 104.916 174.067 105.769 173.256C106.665 172.445 107.86 172.04 109.353 172.04C110.847 172.04 112.02 172.445 112.873 173.256C113.727 174.067 114.153 175.176 114.153 176.584V181.576H118.633C121.535 181.576 122.985 182.792 122.985 185.224C122.985 186.376 122.623 187.272 121.897 187.912C121.172 188.509 120.084 188.808 118.633 188.808H114.153V202.184C114.153 203.464 114.452 204.445 115.049 205.128C115.647 205.768 116.521 206.131 117.673 206.216L119.465 206.344ZM141.847 213.512C138.519 213.512 135.597 212.851 133.079 211.528C130.562 210.163 128.621 208.264 127.255 205.832C125.89 203.357 125.207 200.456 125.207 197.128C125.207 193.8 125.89 190.92 127.255 188.488C128.621 186.013 130.562 184.115 133.079 182.792C135.597 181.469 138.519 180.808 141.847 180.808C145.175 180.808 148.098 181.469 150.615 182.792C153.133 184.115 155.074 186.013 156.439 188.488C157.805 190.92 158.487 193.8 158.487 197.128C158.487 200.456 157.805 203.357 156.439 205.832C155.074 208.264 153.133 210.163 150.615 211.528C148.098 212.851 145.175 213.512 141.847 213.512ZM141.847 206.152C146.541 206.152 148.887 203.144 148.887 197.128C148.887 194.099 148.269 191.837 147.031 190.344C145.837 188.851 144.109 188.104 141.847 188.104C137.154 188.104 134.807 191.112 134.807 197.128C134.807 203.144 137.154 206.152 141.847 206.152ZM191.376 180.936C192.827 180.936 193.979 181.363 194.832 182.216C195.728 183.027 196.176 184.115 196.176 185.48V220.424C196.176 221.747 195.707 222.813 194.768 223.624C193.872 224.435 192.678 224.84 191.184 224.84C189.776 224.84 188.646 224.456 187.792 223.688C186.939 222.92 186.512 221.896 186.512 220.616V208.456C185.574 210.035 184.23 211.272 182.48 212.168C180.774 213.064 178.854 213.512 176.72 213.512C173.99 213.512 171.579 212.851 169.488 211.528C167.398 210.205 165.755 208.328 164.56 205.896C163.408 203.421 162.832 200.563 162.832 197.32C162.832 194.077 163.408 191.219 164.56 188.744C165.755 186.227 167.398 184.285 169.488 182.92C171.622 181.512 174.032 180.808 176.72 180.808C178.896 180.808 180.838 181.277 182.544 182.216C184.294 183.112 185.638 184.371 186.576 185.992V185.48C186.576 184.115 187.003 183.027 187.856 182.216C188.752 181.363 189.926 180.936 191.376 180.936ZM179.536 206.152C181.798 206.152 183.526 205.384 184.72 203.848C185.958 202.312 186.576 200.093 186.576 197.192C186.576 194.291 185.958 192.072 184.72 190.536C183.526 188.957 181.798 188.168 179.536 188.168C177.275 188.168 175.526 188.979 174.288 190.6C173.051 192.179 172.432 194.419 172.432 197.32C172.432 200.179 173.051 202.376 174.288 203.912C175.526 205.405 177.275 206.152 179.536 206.152ZM229.026 180.936C230.52 180.936 231.693 181.341 232.546 182.152C233.442 182.963 233.89 184.072 233.89 185.48V208.968C233.89 210.291 233.421 211.357 232.482 212.168C231.586 212.979 230.413 213.384 228.962 213.384C227.597 213.384 226.509 213 225.698 212.232C224.888 211.464 224.482 210.44 224.482 209.16V208.52C223.501 210.141 222.2 211.379 220.578 212.232C219 213.085 217.208 213.512 215.202 213.512C211.234 213.512 208.269 212.424 206.306 210.248C204.386 208.029 203.426 204.701 203.426 200.264V185.48C203.426 184.072 203.853 182.963 204.706 182.152C205.602 181.341 206.797 180.936 208.29 180.936C209.784 180.936 210.957 181.341 211.81 182.152C212.664 182.963 213.09 184.072 213.09 185.48V200.456C213.09 202.333 213.474 203.72 214.242 204.616C215.053 205.512 216.269 205.96 217.89 205.96C219.768 205.96 221.282 205.32 222.434 204.04C223.629 202.76 224.226 201.075 224.226 198.984V185.48C224.226 184.072 224.653 182.963 225.506 182.152C226.36 181.341 227.533 180.936 229.026 180.936ZM266.522 203.656C267.375 203.656 268.058 203.997 268.57 204.68C269.124 205.363 269.402 206.237 269.402 207.304C269.402 208.029 269.188 208.712 268.762 209.352C268.335 209.949 267.738 210.461 266.97 210.888C265.519 211.656 263.834 212.296 261.914 212.808C259.994 213.277 258.223 213.512 256.602 213.512C253.188 213.512 250.202 212.851 247.642 211.528C245.124 210.205 243.183 208.328 241.818 205.896C240.452 203.421 239.77 200.52 239.77 197.192C239.77 193.992 240.431 191.155 241.754 188.68C243.076 186.205 244.911 184.285 247.258 182.92C249.604 181.512 252.271 180.808 255.258 180.808C258.116 180.808 260.612 181.448 262.746 182.728C264.922 183.965 266.607 185.757 267.802 188.104C268.996 190.408 269.594 193.117 269.594 196.232C269.594 197.171 269.359 197.896 268.89 198.408C268.463 198.877 267.844 199.112 267.034 199.112H249.114C249.412 201.629 250.18 203.464 251.418 204.616C252.655 205.725 254.426 206.28 256.73 206.28C257.967 206.28 259.076 206.131 260.058 205.832C261.039 205.533 262.127 205.128 263.322 204.616C263.919 204.36 264.495 204.147 265.05 203.976C265.604 203.763 266.095 203.656 266.522 203.656ZM255.514 187.464C253.679 187.464 252.207 188.061 251.098 189.256C249.988 190.408 249.327 192.093 249.114 194.312H261.466C261.338 192.051 260.762 190.344 259.738 189.192C258.756 188.04 257.348 187.464 255.514 187.464Z" fill="white"/>
<defs>
<linearGradient id="paint0_linear" x1="150" y1="0" x2="150" y2="300" gradientUnits="userSpaceOnUse">
<stop stop-color="#6AB8FF"/>
<stop offset="1" stop-color="#9CC7F2"/>
</linearGradient>
</defs>
</svg>
