<svg width="300" height="300" viewBox="0 0 300 300" fill="none" xmlns="http://www.w3.org/2000/svg">
<rect width="300" height="300" rx="8" fill="url(#paint0_linear)"/>
<path d="M77.12 129.184C77.504 128.288 78.0587 127.627 78.784 127.2C79.5093 126.731 80.32 126.496 81.216 126.496C82.496 126.496 83.648 126.923 84.672 127.776C85.696 128.629 86.208 129.675 86.208 130.912C86.208 131.552 86.0587 132.192 85.76 132.832L68.48 169.312C68.0107 170.293 67.3067 171.061 66.368 171.616C65.4293 172.128 64.4053 172.384 63.296 172.384C62.1867 172.384 61.1627 172.128 60.224 171.616C59.2853 171.061 58.5813 170.293 58.112 169.312L40.832 132.832C40.5333 132.235 40.384 131.616 40.384 130.976C40.384 129.696 40.9173 128.629 41.984 127.776C43.0507 126.923 44.2453 126.496 45.568 126.496C46.464 126.496 47.2747 126.731 48 127.2C48.768 127.627 49.344 128.288 49.728 129.184L63.424 159.136L77.12 129.184ZM111.678 162.656C112.531 162.656 113.214 162.997 113.726 163.68C114.281 164.363 114.558 165.237 114.558 166.304C114.558 167.029 114.345 167.712 113.918 168.352C113.491 168.949 112.894 169.461 112.126 169.888C110.675 170.656 108.99 171.296 107.07 171.808C105.15 172.277 103.379 172.512 101.758 172.512C98.3447 172.512 95.358 171.851 92.798 170.528C90.2807 169.205 88.3393 167.328 86.974 164.896C85.6087 162.421 84.926 159.52 84.926 156.192C84.926 152.992 85.5873 150.155 86.91 147.68C88.2327 145.205 90.0673 143.285 92.414 141.92C94.7607 140.512 97.4273 139.808 100.414 139.808C103.273 139.808 105.769 140.448 107.902 141.728C110.078 142.965 111.763 144.757 112.958 147.104C114.153 149.408 114.75 152.117 114.75 155.232C114.75 156.171 114.515 156.896 114.046 157.408C113.619 157.877 113.001 158.112 112.19 158.112H94.27C94.5687 160.629 95.3367 162.464 96.574 163.616C97.8113 164.725 99.582 165.28 101.886 165.28C103.123 165.28 104.233 165.131 105.214 164.832C106.195 164.533 107.283 164.128 108.478 163.616C109.075 163.36 109.651 163.147 110.206 162.976C110.761 162.763 111.251 162.656 111.678 162.656ZM100.67 146.464C98.8353 146.464 97.3633 147.061 96.254 148.256C95.1447 149.408 94.4833 151.093 94.27 153.312H106.622C106.494 151.051 105.918 149.344 104.894 148.192C103.913 147.04 102.505 146.464 100.67 146.464ZM140.299 139.808C144.054 139.808 146.848 140.917 148.683 143.136C150.518 145.312 151.435 148.619 151.435 153.056V167.84C151.435 169.248 150.987 170.357 150.091 171.168C149.238 171.979 148.064 172.384 146.571 172.384C145.078 172.384 143.904 171.979 143.051 171.168C142.198 170.357 141.771 169.248 141.771 167.84V153.504C141.771 151.371 141.366 149.813 140.555 148.832C139.787 147.851 138.571 147.36 136.907 147.36C134.902 147.36 133.28 148 132.043 149.28C130.848 150.56 130.251 152.267 130.251 154.4V167.84C130.251 169.248 129.824 170.357 128.971 171.168C128.118 171.979 126.944 172.384 125.451 172.384C123.958 172.384 122.763 171.979 121.867 171.168C121.014 170.357 120.587 169.248 120.587 167.84V144.352C120.587 143.029 121.035 141.963 121.931 141.152C122.87 140.341 124.064 139.936 125.515 139.936C126.838 139.936 127.904 140.341 128.715 141.152C129.568 141.92 129.995 142.923 129.995 144.16V145.056C131.104 143.349 132.534 142.048 134.283 141.152C136.075 140.256 138.08 139.808 140.299 139.808ZM185.466 126.56C186.959 126.56 188.154 126.965 189.05 127.776C189.988 128.587 190.458 129.653 190.458 130.976V167.84C190.458 169.205 190.01 170.315 189.114 171.168C188.26 171.979 187.108 172.384 185.658 172.384C184.207 172.384 183.034 171.979 182.138 171.168C181.284 170.315 180.858 169.205 180.858 167.84V167.328C179.919 168.949 178.575 170.229 176.826 171.168C175.119 172.064 173.178 172.512 171.002 172.512C168.314 172.512 165.903 171.829 163.77 170.464C161.679 169.056 160.036 167.115 158.842 164.64C157.69 162.123 157.114 159.243 157.114 156C157.114 152.757 157.69 149.92 158.842 147.488C160.036 145.013 161.679 143.115 163.77 141.792C165.86 140.469 168.271 139.808 171.002 139.808C173.135 139.808 175.055 140.256 176.762 141.152C178.511 142.048 179.855 143.307 180.794 144.928V130.784C180.794 129.504 181.22 128.48 182.074 127.712C182.927 126.944 184.058 126.56 185.466 126.56ZM173.818 165.152C176.079 165.152 177.807 164.384 179.002 162.848C180.239 161.269 180.858 159.029 180.858 156.128C180.858 153.227 180.239 151.008 179.002 149.472C177.807 147.936 176.079 147.168 173.818 147.168C171.556 147.168 169.807 147.936 168.57 149.472C167.332 150.965 166.714 153.141 166.714 156C166.714 158.901 167.332 161.163 168.57 162.784C169.807 164.363 171.556 165.152 173.818 165.152ZM212.044 139.808C216.652 139.808 220.065 140.939 222.284 143.2C224.502 145.419 225.612 148.832 225.612 153.44V167.904C225.612 169.312 225.206 170.421 224.396 171.232C223.585 172 222.454 172.384 221.004 172.384C219.638 172.384 218.529 171.979 217.676 171.168C216.865 170.315 216.46 169.227 216.46 167.904V167.456C215.82 169.035 214.753 170.272 213.26 171.168C211.766 172.064 210.017 172.512 208.012 172.512C205.878 172.512 203.937 172.085 202.188 171.232C200.481 170.379 199.116 169.184 198.092 167.648C197.11 166.112 196.62 164.405 196.62 162.528C196.62 160.224 197.196 158.411 198.348 157.088C199.542 155.765 201.441 154.805 204.044 154.208C206.646 153.611 210.209 153.312 214.732 153.312H216.396V152.16C216.396 150.368 215.99 149.067 215.18 148.256C214.412 147.445 213.11 147.04 211.276 147.04C209.441 147.04 206.796 147.68 203.34 148.96C202.358 149.429 201.526 149.664 200.844 149.664C199.905 149.664 199.158 149.344 198.604 148.704C198.049 148.021 197.772 147.147 197.772 146.08C197.772 145.227 197.964 144.523 198.348 143.968C198.732 143.413 199.35 142.901 200.204 142.432C201.697 141.621 203.51 140.981 205.644 140.512C207.82 140.043 209.953 139.808 212.044 139.808ZM210.124 165.856C212.001 165.856 213.516 165.237 214.668 164C215.82 162.72 216.396 161.077 216.396 159.072V157.984H215.308C211.852 157.984 209.42 158.261 208.012 158.816C206.646 159.371 205.964 160.373 205.964 161.824C205.964 163.019 206.348 164 207.116 164.768C207.926 165.493 208.929 165.856 210.124 165.856ZM244.741 172.512C242.138 172.512 239.877 172.299 237.957 171.872C236.037 171.445 234.352 170.763 232.901 169.824C232.261 169.44 231.77 168.928 231.429 168.288C231.088 167.648 230.917 166.923 230.917 166.112C230.917 165.131 231.194 164.32 231.749 163.68C232.304 162.997 232.986 162.656 233.797 162.656C234.352 162.656 234.906 162.763 235.461 162.976C236.016 163.147 236.592 163.36 237.189 163.616C238.384 164.171 239.557 164.619 240.709 164.96C241.861 165.259 243.29 165.408 244.997 165.408C246.49 165.408 247.642 165.173 248.453 164.704C249.306 164.235 249.733 163.595 249.733 162.784C249.733 162.187 249.541 161.717 249.157 161.376C248.816 160.992 248.154 160.651 247.173 160.352C246.192 160.053 244.634 159.691 242.501 159.264C238.704 158.539 235.973 157.451 234.309 156C232.645 154.549 231.813 152.523 231.813 149.92C231.813 148 232.389 146.272 233.541 144.736C234.736 143.2 236.357 142.005 238.405 141.152C240.453 140.256 242.757 139.808 245.317 139.808C247.152 139.808 248.944 140.043 250.693 140.512C252.442 140.981 254 141.643 255.365 142.496C256.688 143.307 257.349 144.501 257.349 146.08C257.349 147.104 257.072 147.957 256.517 148.64C255.962 149.323 255.28 149.664 254.469 149.664C253.488 149.664 252.314 149.28 250.949 148.512C249.882 147.957 248.901 147.552 248.005 147.296C247.152 146.997 246.128 146.848 244.933 146.848C243.61 146.848 242.565 147.104 241.797 147.616C241.029 148.085 240.645 148.747 240.645 149.6C240.645 150.496 241.093 151.179 241.989 151.648C242.885 152.117 244.613 152.587 247.173 153.056C250.032 153.611 252.272 154.293 253.893 155.104C255.514 155.872 256.688 156.853 257.413 158.048C258.138 159.243 258.501 160.757 258.501 162.592C258.501 165.621 257.242 168.032 254.725 169.824C252.25 171.616 248.922 172.512 244.741 172.512Z" fill="white"/>
<defs>
<linearGradient id="paint0_linear" x1="150" y1="0" x2="150" y2="300" gradientUnits="userSpaceOnUse">
<stop stop-color="#6AB8FF"/>
<stop offset="1" stop-color="#9CC7F2"/>
</linearGradient>
</defs>
</svg>
