<svg width="300" height="300" viewBox="0 0 300 300" fill="none" xmlns="http://www.w3.org/2000/svg">
<rect width="300" height="300" rx="8" fill="url(#paint0_linear)"/>
<path d="M80.12 129.184C80.504 128.288 81.0587 127.627 81.784 127.2C82.5093 126.731 83.32 126.496 84.216 126.496C85.496 126.496 86.648 126.923 87.672 127.776C88.696 128.629 89.208 129.675 89.208 130.912C89.208 131.552 89.0587 132.192 88.76 132.832L71.48 169.312C71.0107 170.293 70.3067 171.061 69.368 171.616C68.4293 172.128 67.4053 172.384 66.296 172.384C65.1867 172.384 64.1627 172.128 63.224 171.616C62.2853 171.061 61.5813 170.293 61.112 169.312L43.832 132.832C43.5333 132.235 43.384 131.616 43.384 130.976C43.384 129.696 43.9173 128.629 44.984 127.776C46.0507 126.923 47.2453 126.496 48.568 126.496C49.464 126.496 50.2747 126.731 51 127.2C51.768 127.627 52.344 128.288 52.728 129.184L66.424 159.136L80.12 129.184ZM114.678 162.656C115.531 162.656 116.214 162.997 116.726 163.68C117.281 164.363 117.558 165.237 117.558 166.304C117.558 167.029 117.345 167.712 116.918 168.352C116.491 168.949 115.894 169.461 115.126 169.888C113.675 170.656 111.99 171.296 110.07 171.808C108.15 172.277 106.379 172.512 104.758 172.512C101.345 172.512 98.358 171.851 95.798 170.528C93.2807 169.205 91.3393 167.328 89.974 164.896C88.6087 162.421 87.926 159.52 87.926 156.192C87.926 152.992 88.5873 150.155 89.91 147.68C91.2327 145.205 93.0673 143.285 95.414 141.92C97.7607 140.512 100.427 139.808 103.414 139.808C106.273 139.808 108.769 140.448 110.902 141.728C113.078 142.965 114.763 144.757 115.958 147.104C117.153 149.408 117.75 152.117 117.75 155.232C117.75 156.171 117.515 156.896 117.046 157.408C116.619 157.877 116.001 158.112 115.19 158.112H97.27C97.5687 160.629 98.3367 162.464 99.574 163.616C100.811 164.725 102.582 165.28 104.886 165.28C106.123 165.28 107.233 165.131 108.214 164.832C109.195 164.533 110.283 164.128 111.478 163.616C112.075 163.36 112.651 163.147 113.206 162.976C113.761 162.763 114.251 162.656 114.678 162.656ZM103.67 146.464C101.835 146.464 100.363 147.061 99.254 148.256C98.1447 149.408 97.4833 151.093 97.27 153.312H109.622C109.494 151.051 108.918 149.344 107.894 148.192C106.913 147.04 105.505 146.464 103.67 146.464ZM143.299 139.808C147.054 139.808 149.848 140.917 151.683 143.136C153.518 145.312 154.435 148.619 154.435 153.056V167.84C154.435 169.248 153.987 170.357 153.091 171.168C152.238 171.979 151.064 172.384 149.571 172.384C148.078 172.384 146.904 171.979 146.051 171.168C145.198 170.357 144.771 169.248 144.771 167.84V153.504C144.771 151.371 144.366 149.813 143.555 148.832C142.787 147.851 141.571 147.36 139.907 147.36C137.902 147.36 136.28 148 135.043 149.28C133.848 150.56 133.251 152.267 133.251 154.4V167.84C133.251 169.248 132.824 170.357 131.971 171.168C131.118 171.979 129.944 172.384 128.451 172.384C126.958 172.384 125.763 171.979 124.867 171.168C124.014 170.357 123.587 169.248 123.587 167.84V144.352C123.587 143.029 124.035 141.963 124.931 141.152C125.87 140.341 127.064 139.936 128.515 139.936C129.838 139.936 130.904 140.341 131.715 141.152C132.568 141.92 132.995 142.923 132.995 144.16V145.056C134.104 143.349 135.534 142.048 137.283 141.152C139.075 140.256 141.08 139.808 143.299 139.808ZM188.466 126.56C189.959 126.56 191.154 126.965 192.05 127.776C192.988 128.587 193.458 129.653 193.458 130.976V167.84C193.458 169.205 193.01 170.315 192.114 171.168C191.26 171.979 190.108 172.384 188.658 172.384C187.207 172.384 186.034 171.979 185.138 171.168C184.284 170.315 183.858 169.205 183.858 167.84V167.328C182.919 168.949 181.575 170.229 179.826 171.168C178.119 172.064 176.178 172.512 174.002 172.512C171.314 172.512 168.903 171.829 166.77 170.464C164.679 169.056 163.036 167.115 161.842 164.64C160.69 162.123 160.114 159.243 160.114 156C160.114 152.757 160.69 149.92 161.842 147.488C163.036 145.013 164.679 143.115 166.77 141.792C168.86 140.469 171.271 139.808 174.002 139.808C176.135 139.808 178.055 140.256 179.762 141.152C181.511 142.048 182.855 143.307 183.794 144.928V130.784C183.794 129.504 184.22 128.48 185.074 127.712C185.927 126.944 187.058 126.56 188.466 126.56ZM176.818 165.152C179.079 165.152 180.807 164.384 182.002 162.848C183.239 161.269 183.858 159.029 183.858 156.128C183.858 153.227 183.239 151.008 182.002 149.472C180.807 147.936 179.079 147.168 176.818 147.168C174.556 147.168 172.807 147.936 171.57 149.472C170.332 150.965 169.714 153.141 169.714 156C169.714 158.901 170.332 161.163 171.57 162.784C172.807 164.363 174.556 165.152 176.818 165.152ZM226.116 162.656C226.969 162.656 227.652 162.997 228.164 163.68C228.718 164.363 228.996 165.237 228.996 166.304C228.996 167.029 228.782 167.712 228.356 168.352C227.929 168.949 227.332 169.461 226.564 169.888C225.113 170.656 223.428 171.296 221.508 171.808C219.588 172.277 217.817 172.512 216.196 172.512C212.782 172.512 209.796 171.851 207.236 170.528C204.718 169.205 202.777 167.328 201.411 164.896C200.046 162.421 199.364 159.52 199.364 156.192C199.364 152.992 200.025 150.155 201.348 147.68C202.67 145.205 204.505 143.285 206.852 141.92C209.198 140.512 211.865 139.808 214.852 139.808C217.71 139.808 220.206 140.448 222.34 141.728C224.516 142.965 226.201 144.757 227.396 147.104C228.59 149.408 229.188 152.117 229.188 155.232C229.188 156.171 228.953 156.896 228.484 157.408C228.057 157.877 227.438 158.112 226.628 158.112H208.708C209.006 160.629 209.774 162.464 211.012 163.616C212.249 164.725 214.02 165.28 216.324 165.28C217.561 165.28 218.67 165.131 219.652 164.832C220.633 164.533 221.721 164.128 222.916 163.616C223.513 163.36 224.089 163.147 224.644 162.976C225.198 162.763 225.689 162.656 226.116 162.656ZM215.108 146.464C213.273 146.464 211.801 147.061 210.692 148.256C209.582 149.408 208.921 151.093 208.708 153.312H221.06C220.932 151.051 220.356 149.344 219.332 148.192C218.35 147.04 216.942 146.464 215.108 146.464ZM253.777 139.936C255.057 139.851 256.059 140.149 256.785 140.832C257.553 141.472 257.937 142.453 257.937 143.776C257.937 145.184 257.595 146.229 256.913 146.912C256.23 147.595 255.014 148.021 253.265 148.192L251.345 148.384C248.998 148.64 247.291 149.408 246.225 150.688C245.201 151.968 244.689 153.611 244.689 155.616V167.84C244.689 169.333 244.219 170.464 243.281 171.232C242.385 172 241.254 172.384 239.889 172.384C238.481 172.384 237.307 172 236.369 171.232C235.473 170.464 235.025 169.333 235.025 167.84V144.352C235.025 142.944 235.494 141.856 236.433 141.088C237.371 140.32 238.502 139.936 239.825 139.936C241.105 139.936 242.171 140.32 243.025 141.088C243.878 141.813 244.305 142.837 244.305 144.16V145.888C245.073 144.053 246.225 142.645 247.76 141.664C249.339 140.683 251.046 140.128 252.881 140L253.777 139.936Z" fill="white"/>
<defs>
<linearGradient id="paint0_linear" x1="150" y1="0" x2="150" y2="300" gradientUnits="userSpaceOnUse">
<stop stop-color="#6AB8FF"/>
<stop offset="1" stop-color="#9CC7F2"/>
</linearGradient>
</defs>
</svg>
