<?xml version="1.0"?>
<svg xmlns="http://www.w3.org/2000/svg" xmlns:xlink="http://www.w3.org/1999/xlink" xmlns:svgjs="http://svgjs.com/svgjs" version="1.1" width="51" height="51" x="0" y="0" viewBox="0 0 405 405.24117" style="enable-background:new 0 0 512 512" xml:space="preserve" class=""><g><path xmlns="http://www.w3.org/2000/svg" d="m232.226562 259.414062 117.710938 126.191407c7.996094 7.996093 20.964844 7.996093 28.964844 0 7.996094-7.996094 7.996094-20.964844 0-28.964844l-119.367188-124.535156" fill="#ff7a7a" data-original="#f35cd2" style="" class=""/><path xmlns="http://www.w3.org/2000/svg" d="m364.421875 405.242188c-8.746094 0-17.488281-3.328126-24.140625-9.980469l-118.042969-126.535157c-5.140625-5.511718-4.839843-14.152343.675781-19.300781 5.511719-5.132812 14.140626-4.839843 19.300782.675781l117.707031 126.191407c2.339844 2.324219 6.660156 2.3125 9.328125-.339844 2.660156-2.664063 2.660156-6.992187 0-9.660156l-119.574219-124.738281c-5.214843-5.441407-5.03125-14.089844.414063-19.308594 5.441406-5.207032 14.078125-5.046875 19.300781.414062l119.371094 124.535156c13.109375 13.097657 13.109375 34.757813-.207031 48.066407-6.65625 6.652343-15.394532 9.980469-24.132813 9.980469zm0 0" fill="#276f80" data-original="#5c128d" style="" class=""/><path xmlns="http://www.w3.org/2000/svg" d="m232.230469 259.421875c22.753906-17.09375 39.992187-41.128906 48.574219-68.960937 3.925781-12.730469 6.039062-26.253907 6.039062-40.273438 0-75.40625-61.128906-136.535156-136.535156-136.535156s-136.53125 61.128906-136.53125 136.535156 61.125 136.53125 136.53125 136.53125c9.109375 0 18.011718-.890625 26.625-2.59375" fill="#51d5eb" data-original="#2ee52b" style="" class=""/><path xmlns="http://www.w3.org/2000/svg" d="m150.308594 300.375c-82.8125 0-150.1875-67.375-150.1875-150.1875s67.375-150.1875 150.1875-150.1875 150.183594 67.375 150.183594 150.1875c0 15.101562-2.230469 30.003906-6.644532 44.300781-9.242187 29.972657-28.214844 56.914063-53.421875 75.84375-6.039062 4.539063-14.585937 3.3125-19.113281-2.714843-4.53125-6.023438-3.3125-14.585938 2.714844-19.109376 20.640625-15.507812 36.164062-37.554687 43.726562-62.066406 3.605469-11.695312 5.433594-23.886718 5.433594-36.253906 0-67.753906-55.128906-122.878906-122.878906-122.878906-67.753906 0-122.882813 55.125-122.882813 122.878906s55.128907 122.878906 122.882813 122.878906c8.066406 0 16.132812-.785156 23.980468-2.332031 7.40625-1.519531 14.578126 3.359375 16.039063 10.746094 1.457031 7.398437-3.355469 14.582031-10.75 16.039062-9.589844 1.894531-19.4375 2.855469-29.269531 2.855469zm0 0" fill="#276f80" data-original="#5c128d" style="" class=""/><path xmlns="http://www.w3.org/2000/svg" d="m68.386719 163.839844c-7.539063 0-13.652344-6.113282-13.652344-13.652344 0-52.699219 42.871094-95.574219 95.574219-95.574219 7.539062 0 13.652344 6.113281 13.652344 13.652344 0 7.542969-6.113282 13.65625-13.652344 13.65625-37.640625 0-68.269532 30.625-68.269532 68.265625 0 7.539062-6.113281 13.652344-13.652343 13.652344zm0 0" fill="#ffffff" data-original="#ffffff" style="" class=""/></g></svg>
